<svg xmlns="http://www.w3.org/2000/svg" viewBox="0 0 500 500">
  <path d="M39.8 205.3L66.2 191.3L122.2 216.4L132.8 224.2L137.8 226.7L138.1 232.9L136.4 238.7L139.0 246.2L137.8 248.5L188.8 290.8L188.8 296.7L193.9 303.9L191.3 307.8L185.8 309.5L183.0 312.8L184.1 324.8L187.2 332.6L191.3 336.2L205.8 336.5L212.8 335.7L214.2 337.9L216.4 349.9L214.2 359.4L214.2 364.4L217.8 375.5L216.4 384.2L220.6 392.0L226.2 400.3L232.3 412.9L232.3 419.8L234.8 432.4L237.9 437.1L254.3 445.2L255.7 448.0L254.6 452.4L251.5 455.0L250.4 460.2L263.2 458.0L264.4 459.4L271.0 454.7L271.3 452.4L268.3 448.8L274.1 446.6L278.3 443.2L281.1 433.5L287.5 431.8L292.8 433.2L295.6 427.6L292.8 423.7L293.1 415.4L300.6 411.8L302.8 407.6L307.3 407.0L315.9 407.3L319.2 404.5L324.8 404.0L333.5 406.2L338.5 405.9L341.3 401.7L339.0 398.1L339.6 387.5L341.3 383.1L349.1 380.3L355.5 373.9L361.6 375.8L370.2 373.3L372.5 374.7L376.6 370.0L380.0 368.3L384.7 368.3L389.7 371.9L392.5 370.0L405.4 367.7L411.5 363.8L420.4 363.6L427.1 365.2L430.4 368.0L439.3 369.7L444.9 367.2L453.6 372.7L461.1 373.6L467.2 376.4L470.0 374.4L459.1 281.1L445.2 162.4L440.7 161.5L437.7 158.5L440.7 150.1L439.3 148.2L443.2 144.0L443.2 139.0L441.6 136.7L435.2 134.2L429.9 133.4L424.9 134.2L420.4 137.6L417.6 137.6L417.1 131.2L414.5 129.5L410.4 131.2L409.5 138.4L406.5 139.2L406.2 129.8L403.1 125.3L401.7 120.3L403.7 117.2L402.6 108.3L404.0 104.1L400.3 97.2L393.4 99.9L390.3 105.0L386.1 104.4L384.2 100.2L386.1 94.9L383.6 91.3L370.5 93.5L366.6 93.5L366.9 96.9L363.3 97.4L362.4 89.1L363.8 86.6L363.3 81.3L365.8 76.0L357.4 76.8L354.4 72.4L353.8 67.1L356.9 61.8L357.4 58.7L360.5 54.5L364.7 55.6L366.3 53.1L362.2 48.1L365.8 45.6L364.1 42.8L355.5 43.7L352.4 49.8L349.3 47.3L335.7 49.2L330.7 48.4L326.8 43.4L324.0 42.3L316.7 43.9L315.3 45.3L308.7 46.2L303.9 50.1L299.5 49.8L285.0 58.4L278.0 58.1L275.5 60.7L272.2 58.7L266.3 61.2L263.8 64.3L260.4 64.8L252.9 68.7L252.1 70.1L235.6 39.8L176.9 58.1L176.3 60.1L170.2 63.7L164.3 72.1L157.9 74.3L153.7 72.9L145.9 64.8L140.6 65.4L136.7 63.2L128.6 62.0L124.2 67.1L120.6 69.6L118.9 74.9L111.9 77.9L88.8 139.8L81.8 144.0L79.9 152.9L76.3 157.3L69.6 159.9L67.9 164.9L63.4 165.4L60.1 168.5L50.3 171.6L46.2 170.2L42.0 171.6L40.6 174.3L43.7 177.1L39.5 179.4L35.3 187.7L31.4 189.1L30.0 192.2L34.2 197.5L32.5 201.7Z" fill="white" fill-rule="evenodd"/>
</svg>